<svg width="46" height="32" viewBox="0 0 46 32" fill="none" xmlns="http://www.w3.org/2000/svg">
<path d="M10.625 31.75C5.03516 31.75 0.5 27.2148 0.5 21.625C0.5 17.2094 3.32656 13.4547 7.26406 12.0695C7.25703 11.8797 7.25 11.6898 7.25 11.5C7.25 5.28437 12.2844 0.25 18.5 0.25C22.6695 0.25 26.3047 2.51406 28.2523 5.88906C29.3211 5.17188 30.6148 4.75 32 4.75C35.7266 4.75 38.75 7.77344 38.75 11.5C38.75 12.3578 38.5883 13.1734 38.3 13.9328C42.4062 14.7625 45.5 18.3977 45.5 22.75C45.5 27.7211 41.4711 31.75 36.5 31.75H10.625ZM16.1797 16.4922C15.5188 17.1531 15.5188 18.2219 16.1797 18.8758C16.8406 19.5297 17.9094 19.5367 18.5633 18.8758L21.3055 16.1336V25.5625C21.3055 26.4977 22.0578 27.25 22.993 27.25C23.9281 27.25 24.6805 26.4977 24.6805 25.5625V16.1336L27.4227 18.8758C28.0836 19.5367 29.1523 19.5367 29.8062 18.8758C30.4602 18.2148 30.4672 17.1461 29.8062 16.4922L24.1812 10.8672C23.5203 10.2063 22.4516 10.2063 21.7977 10.8672L16.1727 16.4922H16.1797Z" fill="#A3A3A3"/>
</svg>
