<svg width="13" height="8" viewBox="0 0 13 8" fill="none" xmlns="http://www.w3.org/2000/svg">
<path fill-rule="evenodd" clip-rule="evenodd" d="M0.275923 0.606045C0.447834 0.440649 0.678377 0.35027 0.916891 0.35477C1.1554 0.359271 1.38237 0.458281 1.54792 0.630045L5.99992 5.35564L10.4519 0.630045C10.5328 0.540831 10.6309 0.468769 10.7401 0.418128C10.8494 0.367487 10.9678 0.339297 11.0881 0.33523C11.2085 0.331163 11.3285 0.3513 11.4409 0.394449C11.5534 0.437598 11.6561 0.502881 11.7428 0.586428C11.8296 0.669976 11.8987 0.770089 11.946 0.880836C11.9934 0.991582 12.0181 1.11071 12.0185 1.23116C12.019 1.3516 11.9953 1.47092 11.9488 1.58204C11.9023 1.69316 11.834 1.79381 11.7479 1.87805L6.64792 7.27804C6.56397 7.36515 6.46331 7.43443 6.35198 7.48175C6.24064 7.52908 6.1209 7.55347 5.99992 7.55347C5.87895 7.55347 5.75921 7.52908 5.64787 7.48175C5.53653 7.43443 5.43588 7.36515 5.35192 7.27804L0.251923 1.87805C0.086527 1.70613 -0.00385162 1.47559 0.000648638 1.23708C0.0051489 0.998563 0.10416 0.771594 0.275923 0.606045Z" fill="black"/>
</svg>
