<svg width="13" height="8" viewBox="0 0 13 8" fill="none" xmlns="http://www.w3.org/2000/svg">
<path fill-rule="evenodd" clip-rule="evenodd" d="M11.7426 6.94742C11.5707 7.11282 11.3402 7.2032 11.1017 7.1987C10.8632 7.1942 10.6362 7.09519 10.4706 6.92342L6.01863 2.19782L1.56663 6.92342C1.48571 7.01264 1.3877 7.0847 1.27841 7.13534C1.16913 7.18598 1.05079 7.21417 0.93041 7.21824C0.810031 7.2223 0.69006 7.20217 0.577605 7.15902C0.465151 7.11587 0.362502 7.05059 0.275742 6.96704C0.18898 6.88349 0.119871 6.78338 0.0725117 6.67263C0.0251513 6.56188 0.000501633 6.44276 2.57492e-05 6.32231C-0.000451088 6.20186 0.0232544 6.08255 0.0697374 5.97143C0.11622 5.86031 0.184534 5.75965 0.270632 5.67542L5.37063 0.275422C5.45459 0.188318 5.55524 0.119035 5.66658 0.0717125C5.77792 0.0243897 5.89765 -4.76837e-07 6.01863 -4.76837e-07C6.13961 -4.76837e-07 6.25935 0.0243897 6.37068 0.0717125C6.48202 0.119035 6.58268 0.188318 6.66663 0.275422L11.7666 5.67542C11.932 5.84733 12.0224 6.07788 12.0179 6.31639C12.0134 6.5549 11.9144 6.78187 11.7426 6.94742Z" fill="black"/>
</svg>
