<svg width="37" height="36" viewBox="0 0 37 36" fill="none" xmlns="http://www.w3.org/2000/svg">
<g clip-path="url(#clip0_102_197)">
<path d="M2.40625 2.25C3.65078 2.25 4.65625 3.25547 4.65625 4.5V28.125C4.65625 28.7437 5.1625 29.25 5.78125 29.25H33.9062C35.1508 29.25 36.1562 30.2555 36.1562 31.5C36.1562 32.7445 35.1508 33.75 33.9062 33.75H5.78125C2.67344 33.75 0.15625 31.2328 0.15625 28.125V4.5C0.15625 3.25547 1.16172 2.25 2.40625 2.25ZM11.4062 15.75C12.6508 15.75 13.6562 16.7555 13.6562 18V22.5C13.6562 23.7445 12.6508 24.75 11.4062 24.75C10.1617 24.75 9.15625 23.7445 9.15625 22.5V18C9.15625 16.7555 10.1617 15.75 11.4062 15.75ZM20.4062 11.25V22.5C20.4062 23.7445 19.4008 24.75 18.1562 24.75C16.9117 24.75 15.9062 23.7445 15.9062 22.5V11.25C15.9062 10.0055 16.9117 9 18.1562 9C19.4008 9 20.4062 10.0055 20.4062 11.25ZM24.9062 13.5C26.1508 13.5 27.1562 14.5055 27.1562 15.75V22.5C27.1562 23.7445 26.1508 24.75 24.9062 24.75C23.6617 24.75 22.6562 23.7445 22.6562 22.5V15.75C22.6562 14.5055 23.6617 13.5 24.9062 13.5ZM33.9062 6.75V22.5C33.9062 23.7445 32.9008 24.75 31.6562 24.75C30.4117 24.75 29.4062 23.7445 29.4062 22.5V6.75C29.4062 5.50547 30.4117 4.5 31.6562 4.5C32.9008 4.5 33.9062 5.50547 33.9062 6.75Z" fill="white"/>
</g>
<defs>
<clipPath id="clip0_102_197">
<path d="M0.15625 0H36.1562V36H0.15625V0Z" fill="white"/>
</clipPath>
</defs>
</svg>
